<svg width="700" height="161" viewBox="0 0 700 161" fill="none" xmlns="http://www.w3.org/2000/svg">
<g clip-path="url(#clip0_4_388)">
<g clip-path="url(#clip1_4_388)">
<path d="M208.038 33.6374C208.038 29.7895 207.051 26.6702 205.833 26.6702C204.615 26.6702 203.628 29.7895 203.628 33.6374V126.663C203.628 130.511 204.615 133.63 205.833 133.63C207.051 133.63 208.038 130.511 208.038 126.663V33.6374Z" fill="black"/>
<g clip-path="url(#clip2_4_388)">
<g clip-path="url(#clip3_4_388)">
<g clip-path="url(#clip4_4_388)">
<g clip-path="url(#clip5_4_388)">
<path d="M246.495 78.0027C243.059 78.0027 239.852 77.4157 236.875 76.2419C233.887 75.078 231.263 73.4461 229.001 71.346C226.729 69.2459 224.964 66.7751 223.704 63.9306C222.435 61.0961 221.801 58.0083 221.801 54.6685C221.801 50.9937 222.516 47.6153 223.948 44.5331C225.379 41.4596 227.359 38.7783 229.889 36.4879C232.418 34.1974 235.304 32.4323 238.55 31.1911C241.795 29.95 245.206 29.3301 248.785 29.3301C251.315 29.3301 253.476 29.4733 255.27 29.7596C257.055 30.0459 258.653 30.451 260.066 30.9764C261.469 31.5018 262.862 32.0973 264.246 32.7658L265.033 45.3634H263.745L256.873 34.9847C255.585 34.1731 254.344 33.6105 253.151 33.2955C251.959 32.9906 250.599 32.8374 249.071 32.8374C246.065 32.8374 243.345 33.6964 240.912 35.4142C238.478 37.1321 236.545 39.527 235.114 42.6006C233.682 45.6827 232.967 49.2758 232.967 53.3801C232.967 57.6747 233.658 61.3638 235.042 64.4459C236.427 67.5195 238.302 69.8901 240.668 71.5607C243.026 73.2313 245.66 74.0659 248.57 74.0659C249.382 74.0659 250.264 74.0273 251.219 73.9514C252.174 73.8841 253.127 73.7553 254.082 73.5649V60.3231L247.711 56.959V55.8137H270.187V56.959L264.818 60.3947V71.9902C263.34 73.2313 261.565 74.2907 259.493 75.1682C257.413 76.0558 255.241 76.7472 252.98 77.2439C250.708 77.7493 248.546 78.0027 246.495 78.0027ZM297.744 77.2869H275.483V76.1417L281.568 73.207V34.1258L275.483 31.1911V30.0459H299.963C304.973 30.0459 308.924 31.0809 311.816 33.1524C314.698 35.2324 316.139 38.0869 316.139 41.713C316.139 44.337 315.256 46.5903 313.491 48.4699C311.726 50.3595 309.411 51.8526 306.548 52.9506L319.79 73.2786L324.943 76.1417V77.2869H309.411L296.169 55.3843H292.376V73.1354L297.744 76.1417V77.2869ZM295.239 33.9827H292.376V51.877H295.668C298.627 51.877 300.965 51.0424 302.683 49.3718C304.401 47.7012 305.26 45.5309 305.26 42.8582C305.26 40.0424 304.415 37.8579 302.726 36.3018C301.027 34.7557 298.531 33.9827 295.239 33.9827ZM368.534 77.2869H327.52V76.1417L333.604 73.207V34.1258L327.52 31.1911V30.0459H366.53V42.4288H365.384L360.088 33.9827H344.412V50.9465H355.435L359.444 44.7908H360.589V60.8957H359.444L355.435 54.8832H344.412V73.3501H361.806L367.389 62.6851H368.534V77.2869ZM417.278 77.2869H376.264V76.1417L382.348 73.207V34.1258L376.264 31.1911V30.0459H415.274V42.4288H414.129L408.832 33.9827H393.156V50.9465H404.179L408.188 44.7908H409.333V60.8957H408.188L404.179 54.8832H393.156V73.3501H410.55L416.133 62.6851H417.278V77.2869ZM444.119 77.2869H424.865V76.1417L430.949 73.207V34.1974L424.865 31.1911V30.0459H438.465L466.237 61.3967V34.0542L458.077 31.1911V30.0459H477.26V31.1911L471.247 34.1258V77.6448H466.809L435.96 43.1445V73.207L444.119 76.1417V77.2869ZM505.676 77.2869H483.415V76.1417L489.499 73.207V34.1258L483.415 31.1911V30.0459H507.895C512.905 30.0459 516.856 31.0809 519.748 33.1524C522.63 35.2324 524.071 38.0869 524.071 41.713C524.071 44.337 523.188 46.5903 521.423 48.4699C519.658 50.3595 517.343 51.8526 514.48 52.9506L527.722 73.2786L532.875 76.1417V77.2869H517.343L504.101 55.3843H500.308V73.1354L505.676 76.1417V77.2869ZM503.171 33.9827H500.308V51.877H503.6C506.559 51.877 508.897 51.0424 510.615 49.3718C512.333 47.7012 513.191 45.5309 513.191 42.8582C513.191 40.0424 512.347 37.8579 510.658 36.3018C508.958 34.7557 506.463 33.9827 503.171 33.9827ZM560.504 78.0027C556.972 78.0027 553.704 77.3914 550.698 76.1703C547.692 74.9578 545.082 73.2642 542.867 71.0883C540.644 68.9224 538.912 66.3599 537.671 63.4009C536.43 60.4419 535.81 57.198 535.81 53.6664C535.81 50.1348 536.43 46.8909 537.671 43.9319C538.912 40.9729 540.644 38.4061 542.867 36.2302C545.082 34.0643 547.692 32.3693 550.698 31.1482C553.704 29.9357 556.972 29.3301 560.504 29.3301C564.083 29.3301 567.375 29.9357 570.382 31.1482C573.388 32.3693 576.003 34.0643 578.226 36.2302C580.441 38.4061 582.168 40.9729 583.409 43.9319C584.65 46.8909 585.27 50.1348 585.27 53.6664C585.27 57.198 584.65 60.4419 583.409 63.4009C582.168 66.3599 580.441 68.9224 578.226 71.0883C576.003 73.2642 573.388 74.9578 570.382 76.1703C567.375 77.3914 564.083 78.0027 560.504 78.0027ZM561.649 74.2806C564.036 74.2806 566.149 73.5176 567.991 71.9902C569.823 70.4627 571.255 68.3154 572.286 65.5482C573.306 62.781 573.817 59.5357 573.817 55.8137C573.817 51.2328 573.187 47.2244 571.928 43.7887C570.658 40.353 568.95 37.6904 566.803 35.8007C564.655 33.9211 562.246 32.9806 559.573 32.9806C557.187 32.9806 555.064 33.7293 553.203 35.2281C551.342 36.7355 549.878 38.8742 548.808 41.6414C547.73 44.4086 547.191 47.6539 547.191 51.3759C547.191 55.9569 547.835 59.9652 549.123 63.4009C550.412 66.8366 552.154 69.5093 554.348 71.4176C556.543 73.3258 558.977 74.2806 561.649 74.2806ZM605.669 77.2869H590.137V76.1417L594.503 73.708L613.185 29.688H619.484L637.951 73.5649L642.818 76.1417V77.2869H620.199V76.1417L626.427 73.5649L621.559 61.683H604.596L599.728 73.5649L605.669 76.1417V77.2869ZM613.113 41.0688L606.242 57.7463H619.913L613.113 41.0688ZM671.234 77.2869H647.327V76.1417L653.411 73.207V34.1258L647.327 31.1911V30.0459H671.735C677.414 30.0459 682.232 30.9764 686.194 32.8374C690.155 34.6984 693.175 37.2509 695.255 40.4962C697.327 43.7415 698.362 47.4148 698.362 51.5191C698.362 55.2411 697.685 58.6768 696.329 61.8262C694.965 64.9756 693.065 67.6955 690.631 69.986C688.198 72.2765 685.335 74.0659 682.042 75.3543C678.75 76.6427 675.146 77.2869 671.234 77.2869ZM668.8 33.9827H664.219V73.3501H669.802C675.338 73.3501 679.608 71.5707 682.615 68.0105C685.621 64.4602 687.124 59.7032 687.124 53.738C687.124 47.7255 685.582 42.9298 682.5 39.351C679.427 35.7721 674.86 33.9827 668.8 33.9827Z" fill="black"/>
<path d="M235.114 130.254H219.582V129.109L223.948 126.675L242.63 82.6552H248.928L267.395 126.532L272.263 129.109V130.254H249.644V129.109L255.871 126.532L251.004 114.65H234.04L229.173 126.532L235.114 129.109V130.254ZM242.558 94.036L235.687 110.713H249.358L242.558 94.036ZM301.895 130.97C298.46 130.97 295.253 130.383 292.276 129.209C289.288 128.045 286.664 126.413 284.402 124.313C282.13 122.213 280.365 119.742 279.105 116.898C277.836 114.063 277.201 110.975 277.201 107.636C277.201 103.961 277.917 100.582 279.349 97.5003C280.78 94.4268 282.76 91.7455 285.29 89.455C287.819 87.1646 290.705 85.3995 293.95 84.1583C297.196 82.9172 300.607 82.2973 304.186 82.2973C306.715 82.2973 308.877 82.4405 310.671 82.7268C312.456 83.0131 314.054 83.4182 315.467 83.9436C316.869 84.469 318.262 85.0645 319.647 85.733L320.434 98.3306H319.146L312.274 87.9519C310.986 87.1402 309.745 86.5776 308.552 86.2627C307.36 85.9578 306 85.8046 304.472 85.8046C301.466 85.8046 298.746 86.6635 296.312 88.3814C293.879 90.0992 291.946 92.4942 290.515 95.5677C289.083 98.6498 288.367 102.243 288.367 106.347C288.367 110.642 289.059 114.331 290.443 117.413C291.827 120.487 293.703 122.857 296.069 124.528C298.427 126.198 301.061 127.033 303.971 127.033C304.783 127.033 305.665 126.994 306.62 126.919C307.574 126.851 308.528 126.722 309.483 126.532V113.29L303.112 109.926V108.781H325.588V109.926L320.219 113.362V124.957C318.74 126.198 316.965 127.258 314.894 128.135C312.814 129.023 310.642 129.714 308.38 130.211C306.109 130.716 303.947 130.97 301.895 130.97ZM371.898 130.254H330.884V129.109L336.968 126.174V87.093L330.884 84.1583V83.0131H369.894V95.3959H368.749L363.452 86.9498H347.777V103.914H358.799L362.808 97.758H363.953V113.863H362.808L358.799 107.85H347.777V126.317H365.17L370.753 115.652H371.898V130.254ZM398.739 130.254H379.485V129.109L385.569 126.174V87.1646L379.485 84.1583V83.0131H393.085L420.857 114.364V87.0214L412.697 84.1583V83.0131H431.88V84.1583L425.867 87.093V130.612H421.429L390.58 96.1117V126.174L398.739 129.109V130.254ZM463.445 130.97C458.435 130.97 454.044 129.943 450.275 127.892C446.506 125.841 443.585 123.058 441.514 119.546C439.434 116.043 438.393 112.073 438.393 107.636C438.393 104.057 439.109 100.74 440.541 97.6864C441.972 94.6329 443.919 91.9459 446.381 89.6268C448.834 87.3177 451.625 85.5183 454.756 84.2299C457.877 82.9415 461.155 82.2973 464.591 82.2973C467.12 82.2973 469.219 82.4405 470.889 82.7268C472.56 83.0131 474.063 83.4182 475.399 83.9436C476.734 84.469 478.071 85.0645 479.407 85.733L480.194 99.118H478.906L472.106 88.0235C470.914 87.2605 469.791 86.7108 468.742 86.3772C467.693 86.0437 466.427 85.8762 464.948 85.8762C462.038 85.8762 459.427 86.7451 457.118 88.4816C454.799 90.2281 452.971 92.686 451.635 95.854C450.299 99.0321 449.631 102.721 449.631 106.92C449.631 111.071 450.275 114.66 451.564 117.685C452.852 120.72 454.608 123.058 456.832 124.7C459.046 126.35 461.537 127.176 464.304 127.176C466.069 127.176 467.658 126.947 469.071 126.489C470.474 126.041 471.82 125.458 473.108 124.743L479.55 115.151H480.767L479.765 127.248C477.808 128.393 475.46 129.299 472.722 129.968C469.973 130.636 466.881 130.97 463.445 130.97ZM524.859 130.254H501.238V129.109L507.68 126.174V108.208L492.076 86.9498L487.209 84.1583V83.0131H509.326V84.1583L503.958 86.8067V87.093L516.412 103.914L527.579 87.2361V86.9498L522.067 84.1583V83.0131H538.387V84.1583L533.591 86.5204L518.488 108.137V126.174L524.859 129.109V130.254Z" fill="black"/>
</g>
</g>
</g>
</g>
<g clip-path="url(#clip6_4_388)">
<g clip-path="url(#clip7_4_388)">
<path d="M179.641 9.00323L179.411 4.75398L181.797 4.63959C186.939 4.36317 190.178 4.21067 192.084 4.15729V0.329346C192.084 0.329346 24.3866 6.20852 24.3866 36.1401C24.3866 66.0678 88.417 100.455 88.1215 117.612C87.7097 140.959 23.0159 152.345 1.63812 159.971H86.4992C89.0518 158.064 91.8655 156.842 95.1082 154.978L96.9498 154.095L99.0715 157.87L97.2262 158.625C96.2463 159.187 95.316 159.971 94.4124 159.971H154.142C154.142 159.971 183.864 142.844 183.181 117.272C182.327 85.4153 77.9683 53.0113 78.422 36.3974C78.9024 18.9124 192.084 13.1514 192.084 13.1514V8.41607C190.178 8.47707 186.924 8.62386 182.026 8.88884L179.641 9.00323ZM56.7106 51.7588L55.4791 50.024C51.6092 44.5718 49.7276 39.5925 49.7276 34.8018C49.7276 32.1215 51.0621 29.5994 53.6967 27.3022L55.2999 25.903L58.0965 29.1095L56.4933 30.5068C54.8271 31.9595 53.9845 33.4045 53.9845 34.7999C53.9845 38.624 55.6545 42.9171 58.9505 47.561L60.182 49.2958L56.7106 51.7588ZM129.93 139.047C124.575 144.001 117.588 147.949 110.895 151.571L109.023 152.582L107 148.838L108.87 147.827C115.329 144.337 122.049 140.541 127.041 135.922L128.601 134.477L131.491 137.6L129.93 139.047ZM128.486 102.62L130.097 104.01C136.806 109.811 139.797 114.138 139.797 118.041C139.755 120.568 139.431 122.894 138.838 125.073L138.281 127.126L134.175 126.009L134.734 123.956C135.233 122.116 135.504 120.143 135.54 118.09C135.542 116.353 134.114 113.109 127.316 107.228L125.707 105.838L128.486 102.62ZM97.3692 80.4035L104.693 85.442C109.232 88.5513 113.518 91.4909 117.535 94.3542L119.265 95.5895L116.793 99.0533L115.062 97.8199C111.078 94.9776 106.807 92.0513 102.288 88.9516L94.9557 83.9074L97.3692 80.4035ZM86.3905 72.6123L88.1081 73.8705L85.5956 77.3038L83.8779 76.0495C76.67 70.7784 70.9167 66.1479 66.2881 61.8929L64.7211 60.4536L67.6016 57.3196L69.1667 58.7589C73.6771 62.9052 79.3103 67.4366 86.3905 72.6123ZM91.0725 18.6436C82.5568 20.2964 75.3585 22.0979 69.6776 23.9985L67.6587 24.6734L66.309 20.6396L68.3279 19.9647C74.1842 18.005 81.5636 16.1558 90.2623 14.4668L92.3498 14.0627L93.16 18.2395L91.0725 18.6436ZM128.483 13.18C120.581 14.0589 113.152 15.0177 106.403 16.03L104.299 16.3465L103.666 12.1392L105.77 11.8227C112.57 10.8009 120.055 9.8363 128.012 8.95175L130.126 8.71536L130.595 12.9455L128.483 13.18ZM166.236 9.84202C158.611 10.3682 151.13 10.9629 144 11.6149L141.882 11.8094L141.497 7.57156L143.615 7.37711C150.775 6.72323 158.286 6.12464 165.944 5.59658L168.064 5.44979L168.358 9.69523L166.236 9.84202Z" fill="black"/>
</g>
</g>
</g>
</g>
<defs>
<clipPath id="clip0_4_388">
<rect width="696.724" height="159.641" fill="white" transform="translate(1.63812 0.329346)"/>
</clipPath>
<clipPath id="clip1_4_388">
<rect width="696.724" height="159.641" fill="white" transform="translate(1.63812 0.329346)"/>
</clipPath>
<clipPath id="clip2_4_388">
<rect width="478.78" height="106.428" fill="white" transform="translate(219.582 26.9362)"/>
</clipPath>
<clipPath id="clip3_4_388">
<rect width="478.78" height="106.428" fill="white" transform="translate(219.582 26.9362)"/>
</clipPath>
<clipPath id="clip4_4_388">
<rect width="478.78" height="106.428" fill="white" transform="translate(219.582 26.9362)"/>
</clipPath>
<clipPath id="clip5_4_388">
<rect width="478.78" height="106.428" fill="white" transform="translate(219.582 26.9362)"/>
</clipPath>
<clipPath id="clip6_4_388">
<rect width="190.446" height="159.641" fill="white" transform="translate(1.63812 0.329346)"/>
</clipPath>
<clipPath id="clip7_4_388">
<rect width="190.446" height="159.641" fill="white" transform="translate(1.63812 0.329346)"/>
</clipPath>
</defs>
</svg>
